<svg xmlns="http://www.w3.org/2000/svg" fill="#fff" xml:space="preserve" viewBox="-0.04 4.75 140.44 40.45"><path class="st0" d="M43.8 45.2v-9.1h5.8v1.6h-4v2.7h3.2V42h-3.2v3.2zm10.9-8.8v8.8h-1.8v-6.7L51 39.7l-.8-1.4 2.9-1.9zm1.9.4c0 .3-.2.5-.5.5s-.5-.2-.5-.5.2-.5.5-.5c.2-.1.5.2.5.5m-1 0c0 .2.2.4.4.4s.4-.2.4-.4-.2-.4-.4-.4c-.2-.1-.4.1-.4.4m.4.2h-.1v-.5h.4l.1.1c0 .1 0 .1-.1.1.1 0 .1.1.1.1v.1h-.1v-.1c0-.1 0-.1-.1-.1H56zm0-.3c.1 0 .2 0 .2-.1 0 0 0-.1-.1-.1H56zm4.7 1.1v-1.6h6.7v1.6H65v7.4h-1.8v-7.4zm8.1 7.4v-9.1h5.9v1.6h-4v2.1h3.2v1.6h-3.2v2.2h4v1.6zm7 0 2-9.1h3.5l2 9.1h-1.8l-.4-1.6H78l-.4 1.6zm3.5-7.5-.9 4.3h2.5l-.9-4.3zm5.6 7.5v-9.1H88l1.6 6.6 1.6-6.6h3.1v9.1h-1.8v-7h-.2l-1.8 6.6h-1.8L87 38.2h-.2v7zM140.3 15h-1.2s-.1 0-.1.1c.1 1.2-1.1 2.2-2.8 2.7-.5-5-10.6-.9-11.7 4-4.6 2.3-6.7.5-6.9-.2 0 0 6.5-1.9 6.8-5 .1-2.6-8.7-.6-10.3 5.1-1.8 1-4 1-4 .6-.1-.9 2.8-3.3 3.4-4.7.6-1.6-1.1-1.5-1.1-1.5-1.4.2-5.3 1.4-5.3 1.4.5-2.9-3.7-.6-6.6 0 .2-2-1.6-1.6-7.9.2-.5-5-10.7-.9-11.8 4-2.5 1.2-3.6.9-3.6.1.1-1.1 2.2-3.3 1.4-4.8 9.1-2.4 7.6-9.3 3.2-11.2.5-.4 1-.7 1.4-.9 0 0 .1-.1-.1-.1h-1.7c-.1 0-.1 0-.2.1-.2.1-.5.3-.7.5-14.9-3.9-25.8 11-15.2 12.4l2.2-1.9c.5-.4.3-.5-.1-.5-1 0-1.7-.2-2.1-.5-4.7-3.4 4.2-10.4 13.1-7.9-5.4 4.1-11.8 17.1-17.8 13.2-.2-.1-.3 0-.5.1-1.1 1.2-3 2.7-3 2.7-.2.1-.2.4 0 .5 7.4 3.3 11.6-1.5 15.7-7.2.4.8 1.6 1.8 3.6 1.3 0 1.1-3.9 4.7-4.1 5.4-.9 2.8 5.5 1.2 8.4-.1 1.9 4.1 10-.1 11.4-3.8 3.9-1.3 3.2.1 2.9.6-2.4 3-3.8 4.4-3.8 4.7 0 .1.1.2.2.2H94c.4 0 .6-.2.9-.4.2-.2 3.6-4.3 4.3-5.1 4.2-1.7 2.4.6 2.4.6-2.4 2.9-3.8 4.4-3.8 4.7 0 .1.1.2.2.2h2.6c.4 0 .6-.2.9-.4.2-.2 3.8-4.5 4.3-5.2 4-1.4 2.3.6 2.1.8-.2.3-2.4 2.8-2.5 3.2-.4 2 1.8 2.4 8.6-.3 2 4 9.5.3 10.3-.1 0 .1 0 .2.1.3 1.9 4.1 10-.1 11.4-3.8 4-1.1 4.6-3.9 4.6-4s0-.1-.1-.1M79.7 7.7c4.4 2.9 1.2 6.6-1.9 8-.6-.7-1.9-1.6-3.8-.9 1.8-2.5 3.6-5.1 5.7-7.1m-5.8 8.1c.8-.9 2.6-.1 2.6.5-1.6.7-2.7-.4-2.6-.5m17.2 2.5s0 .1 0 0c-1.9 1-1.5 2.3-1.7 2.5-2.4 2.1-4.1 2-4.6 1.4-1.5-1.7 4-7 6.2-5.1.2.2.2.7.1 1.2m30.9-1.7c.3-.1.4.1.3.4-.7 2.6-5 3.7-5 3.7s.5-3.5 4.7-4.1m12.7 1.8c-1.9.8-1.4 2.2-1.7 2.4-2.4 2.1-4.1 2-4.6 1.4-1.5-1.7 4-7 6.2-5.1.3.2.3.8.1 1.3M56.9 20h-1.4s-.1 0-.1.1c-.6 1.1-2.6 2.4-4.6 2.9-3.7 1.1-1.5-1.9-1.5-1.9 3.3-4 3.5-4.3 3.8-4.7.1-.1-.1-.2-.3-.2h-2.4c-.6 0-1 .3-1.3.6l-.1-.1c-1-1.6-4.9-1.4-7.8.5-2 1.3-3.3 3-3.7 4.4-1.5 0-2.8-.2-3.9-.5l2.7-3.3c5.7-1.6 15-10.6 10.4-10.5-3.9.5-9.1 4.6-15.8 12.4-.2-.2-1.4-1-2.1-.4-.4.3-.3 1 .2 1.5-7 2.6-6.6 1.2-6 .3.5-.7 2.3-3.3 2.3-3.3 7-2.2 16.2-11.8 9.9-10.4-2.7.6-8.2 4-16 13.3-3.6 1.7-6.3 2.7-3.8-.6C18 16.8 26.1 7.7 26.1 7.4c0-.1-.1-.2-.3-.2h-3.3c-.5 0-.9.4-1.2.7-1.9-1.2-4.4-.8-4.4-.8C7.6 7.8-.7 16.6 0 21.6c.2 1.3 1.4 3.1 4.1 3.1.6 0 2.9-.3 5.4-1.5 0 0-1.1 3.2 8.2-.1 0 .1-1.4 3.5 10.5-.6-.1.2-4.2 4.7-6.3 6.8-4.8 4.9-8.2 1.7-8.4 1.5h-.1l-.9.8s-.1.1 0 .2c7.7 5.7 15.9-5 20-9.3 1.3.3 3 .4 5 .1 0 .4.1.7.3 1 .9 1.4 4.1 1.4 6.8 0 0 0 .4 2 5.9.7 2.7-.6 5.7-2.6 6.5-4.1 0-.1-.1-.2-.1-.2M44.6 9c1.1-.7 1.1.8-.5 2.5-3.8 4-6.8 4.6-6.8 4.6s4-5.1 7.3-7.1M34 9c1.1-.7 1.1.8-.5 2.5-3.8 4-6.8 4.6-6.8 4.6S30.7 11 34 9M6.7 22c-5.7-.7-.7-7.6 4.8-11.2 3.9-2.6 8-3.3 8.3-1.2-.1.6-.5 1.4-1.5 2.5s-4.1 4.7-6.6 7.6c-1.8 1.7-3.9 2.4-5 2.3m41.2-3.7c-.8 1-1.9 2.3-2.7 3.4-1.6 1.1-3.2 1.4-3.8.7-.7-.8.1-2.7 1.9-4.1 1.7-1.5 3.7-2 4.4-1.2.2.3.3.7.2 1.2"></path></svg>