<svg xmlns="http://www.w3.org/2000/svg" viewBox="0 9.29 59.79 29.66"><path d="M34.584 35.251c.194.203.428.267.695.172v3.52s0-.007-.413-.007a14.76 14.76 0 0 1-8.353-2.811c1.282-1.196 2.7-3.073 3.539-4.914.534.018 1.196.01 2.087-.094.457-.053.726-.058 1.183-.075.185-.007.518-.117.468-.46-.03-.205-.14-.487-.226-.708-.101-.258.232-.406.362-.203.075.12.239.506.294.634.108.247.4.54.61.695q.273.198.59.313c.426.152.799.4 1.125.71.102.097.192.208.276.32.294.384.375.574-.03 1.035a2.15 2.15 0 0 1-1.358.746c-.366.05-.648-.069-.805-.424a2 2 0 0 0-.1-.187c-.068-.122-.134-.247-.213-.364-.113-.168-.27-.263-.48-.23q-.505.074-1.007.168c-.058.01-.197.101-.16.132.18.31.376.59.603.843a.49.49 0 0 0 .406.172c.327-.013.34 0 .474.296.064.139.126.28.203.41q.097.167.23.311m1.231-2.888c-.3.011-.594.066-.902.14.01.27.106.496.207.716.09.194.18.247.39.22.115-.015.232-.05.334-.103.203-.115.275-.313.223-.543a.9.9 0 0 0-.252-.43m8.574-4.393a1.23 1.23 0 0 0-.443-.622c-.18-.132-.356-.267-.54-.393-.078-.053-.169-.081-.257-.117-.112-.046-.207-.008-.28.084-.064.084-.117.177-.183.26-.08.104-.188.133-.313.095q-.173-.05-.18-.27a.7.7 0 0 1 .012-.177c.1-.393.262-.755.512-1.075a.7.7 0 0 1 .125-.121c.122-.093.237-.089.353.004.422.426.782.766 1.165 1.077.415.335.528.816.6 1.304-.013.07-.015.13-.035.183a.205.205 0 0 1-.187.139c-.084.007-.17-.002-.217-.084a1.7 1.7 0 0 1-.132-.287m-.858 2.286c.16-.044.269.046.293.212.01.07.01.139.011.172 0 .468-.13.69-.684.73-.231-.013-.3-.075-.322-.194-.05-.302.04-.56.287-.739.12-.088.27-.139.415-.18m16.256-20.97-3.448 9.569h-4.4v5.257c-.004.142.002.283 0 .424-.055 7.844-6.359 14.204-14.145 14.394l-.726.011v-4.364l.265-.117c.22-.093.41-.223.534-.437.139-.236.344-.33.62-.329.38.003.45-.068.523-.428.066-.392.117-.719.185-1.041.064-.302.031-.587-.137-.847-.295-.466-.591-.934-.9-1.39-.214-.314-.326-.33-.618-.067l.267.497c.212.295.428.591.634.893a.8.8 0 0 1 .143.316 2.04 2.04 0 0 1-.219 1.333c-.028.05-.099.079-.165.128-.037-.078-.075-.126-.086-.18a1.7 1.7 0 0 1-.027-.317c0-.39-.125-.73-.372-1.04-.303-.374-.583-.767-.865-1.157-.276-.378-.24-.777.092-1.11.144-.14.294-.272.442-.408q.309-.278.45-.665c.073-.198.139-.401.185-.606a6.7 6.7 0 0 0 .137-1.545l.004-.388q.001-.146.104-.254c.11-.112.28-.103.364.031a.8.8 0 0 1 .108.256c.102.45.157.905.106 1.366a9 9 0 0 1-.355 1.688c-.035.108-.095.212-.068.353.09 0 .17.009.249 0 .163-.02.326-.053.49-.073.556-.062 1.039-.271 1.43-.684.178-.188.374-.357.564-.536.073-.069.157-.102.256-.06.093.04.148.141.117.267-.03.137-.07.274-.132.4a6 6 0 0 1-.342.615 6.6 6.6 0 0 0-.675 1.315c-.106.287-.23.567-.33.854-.098.291-.028.373.266.335.233-.028.297.022.313.254.007.093-.002.188 0 .28.002.106 0 .214.018.318.072.421.533.69.933.543.187-.07.364-.166.54-.258.135-.073.26-.161.39-.243.363-.23.758-.375 1.188-.41a5 5 0 0 1 .53-.01.88.88 0 0 0 .743-.332 3.4 3.4 0 0 1 .34-.358c.21-.187.366-.2.607-.05.19.116.37.25.553.379.29.203.592.386.918.523.296.123.603.2.927.167.042-.006.08-.026.154-.053-.077-.07-.123-.12-.176-.16-.148-.115-.311-.215-.45-.34a6 6 0 0 1-.572-.574c-.22-.258-.421-.534-.626-.808a6 6 0 0 1-.347-.487.7.7 0 0 1-.084-.298.19.19 0 0 1 .263-.19.9.9 0 0 1 .27.161q.414.385.818.78c.167.165.322.343.492.504.196.188.412.351.677.435.287.088.443.086.799-.05.04-.05-.183-.15-.183-.15-.748-.38-1.302-.89-1.79-1.574a9 9 0 0 1-.845-1.505c-.276-.61-.479-1.25-.704-1.882q-.407-1.145-.836-2.283c-.19-.501-.49-.936-.825-1.35-.444-.546-.988-.971-1.56-1.369-.58-.405-1.202-.734-1.82-1.078-1.028-.57-2.103-1.053-3.091-1.695-.17-.1-.25-.139-.329-.172a3 3 0 0 0-.311-.104l-.168-.03v-8.79zm-22.46 11.888a1 1 0 0 1-.195-.201.33.33 0 0 1-.013-.366.34.34 0 0 1 .32-.181.5.5 0 0 1 .172.028c.119.047.243.09.35.16.524.335.943.772 1.247 1.312.135.238.205.505.208.715-.014.09 0 .205-.122.258-.086.035-.178-.002-.256-.13-.328-.55-.805-.942-1.317-1.302a7 7 0 0 1-.395-.293M25.01 34.879a14.5 14.5 0 0 1-1.503 1.247 14.76 14.76 0 0 1-8.684 2.817c-8.175 0-14.827-6.655-14.827-14.83S6.648 9.287 14.823 9.287a14.74 14.74 0 0 1 8.685 2.815 16.74 16.74 0 0 0-4.647 8.22 5.53 5.53 0 0 0-4.038-1.75c-3.056 0-5.542 2.486-5.542 5.542s2.486 5.542 5.542 5.542a5.53 5.53 0 0 0 4.038-1.75 5.5 5.5 0 0 0 1.507-3.793 14.79 14.79 0 0 1 5.37-11.41q.378-.314.775-.6c2.442-1.772 5.425-2.816 8.768-2.816l-.003 9.07s-.068.07-.187.12a2.4 2.4 0 0 1-.51.128 5.52 5.52 0 0 0-3.422 1.717 5.52 5.52 0 0 0-1.507 3.793c0 4.233-1.785 8.061-4.642 10.764" fill="#fff"/></svg>