<svg xmlns="http://www.w3.org/2000/svg" xmlns:xlink="http://www.w3.org/1999/xlink" version="1.1" viewBox="208.09 208.11 613.76 208.04">
  <path class="st0" d="M717.83,208.11c-25.82,0-49.43,9.41-67.62,24.97-18.18-15.57-41.8-24.97-67.62-24.97s-49.43,9.41-67.62,24.97c-18.18-15.57-41.8-24.97-67.62-24.97s-49.43,9.41-67.62,24.97c-18.18-15.57-41.8-24.97-67.62-24.97-57.45,0-104.02,46.57-104.02,104.02s46.57,104.02,104.02,104.02c25.81,0,49.43-9.4,67.62-24.97,18.18,15.57,41.8,24.97,67.62,24.97s49.43-9.4,67.62-24.97c18.18,15.57,41.8,24.97,67.62,24.97s49.43-9.4,67.62-24.97c18.18,15.57,41.8,24.97,67.62,24.97,57.45,0,104.02-46.57,104.02-104.02s-46.57-104.02-104.02-104.02M650.22,360.67c-3.61-5.01-6.65-10.41-9.07-16.15-4.33-10.25-6.53-21.14-6.53-32.39s2.2-22.14,6.53-32.39c2.43-5.73,5.46-11.13,9.07-16.14,3.61,5.01,6.65,10.41,9.07,16.14,4.33,10.25,6.53,21.14,6.53,32.39s-2.2,22.14-6.53,32.39c-2.43,5.74-5.46,11.13-9.07,16.15M514.99,360.67c-3.61-5.01-6.65-10.41-9.07-16.15-4.33-10.25-6.53-21.14-6.53-32.39s2.2-22.14,6.53-32.39c2.43-5.73,5.46-11.13,9.07-16.14,3.61,5.01,6.65,10.41,9.07,16.14,4.33,10.25,6.53,21.14,6.53,32.39s-2.2,22.14-6.53,32.39c-2.43,5.74-5.46,11.13-9.07,16.15M379.75,360.67c-3.61-5.01-6.65-10.41-9.07-16.15-4.33-10.25-6.53-21.14-6.53-32.39s2.2-22.14,6.53-32.39c2.43-5.73,5.46-11.13,9.07-16.14,3.61,5.01,6.65,10.41,9.07,16.14,4.33,10.25,6.53,21.14,6.53,32.39s-2.2,22.14-6.53,32.39c-2.43,5.74-5.46,11.13-9.07,16.15M312.14,395.36c-11.24,0-22.14-2.2-32.39-6.53-9.91-4.19-18.81-10.19-26.46-17.84s-13.65-16.55-17.84-26.46c-4.33-10.25-6.53-21.14-6.53-32.39s2.2-22.14,6.53-32.39c4.19-9.91,10.19-18.81,17.84-26.46s16.55-13.65,26.46-17.84c10.25-4.33,21.14-6.53,32.39-6.53s22.14,2.2,32.39,6.53c7.57,3.2,14.54,7.46,20.82,12.7-13.79,17.65-22,39.86-22,63.99s8.22,46.34,22,63.99c-6.28,5.24-13.26,9.5-20.82,12.7-10.25,4.33-21.14,6.53-32.39,6.53M447.37,395.36c-11.24,0-22.14-2.2-32.39-6.53-7.57-3.2-14.54-7.46-20.83-12.7,13.79-17.65,22.01-39.86,22.01-63.99s-8.22-46.34-22.01-63.99c6.28-5.24,13.26-9.5,20.83-12.7,10.25-4.33,21.14-6.53,32.39-6.53s22.14,2.2,32.39,6.53c7.57,3.2,14.54,7.46,20.83,12.7-13.79,17.65-22.01,39.86-22.01,63.99s8.22,46.34,22.01,63.99c-6.28,5.24-13.26,9.5-20.83,12.7-10.25,4.33-21.14,6.53-32.39,6.53M582.6,395.36c-11.24,0-22.14-2.2-32.39-6.53-7.57-3.2-14.54-7.46-20.82-12.7,13.79-17.65,22.01-39.86,22.01-63.99s-8.22-46.34-22.01-63.99c6.28-5.24,13.26-9.5,20.82-12.7,10.25-4.33,21.14-6.53,32.39-6.53s22.14,2.2,32.39,6.53c7.57,3.2,14.54,7.46,20.83,12.7-13.79,17.65-22,39.86-22,63.99s8.22,46.34,22,63.99c-6.28,5.24-13.26,9.5-20.83,12.7-10.25,4.33-21.14,6.53-32.39,6.53M776.68,370.98c-7.65,7.65-16.55,13.65-26.46,17.84-10.25,4.33-21.14,6.53-32.39,6.53s-22.14-2.2-32.39-6.53c-7.56-3.2-14.54-7.46-20.82-12.7,13.79-17.65,22-39.86,22-63.99s-8.22-46.34-22-63.99c6.28-5.24,13.26-9.5,20.82-12.7,10.25-4.33,21.14-6.53,32.39-6.53s22.14,2.2,32.39,6.53c9.91,4.19,18.81,10.19,26.46,17.84s13.65,16.55,17.84,26.46c4.33,10.25,6.53,21.14,6.53,32.39s-2.2,22.14-6.53,32.39c-4.19,9.91-10.19,18.81-17.84,26.46" fill="#fff"></path>
</svg>