<svg role="img" xmlns="http://www.w3.org/2000/svg" id="Cadillac--Streamline-Simple-Icons" viewBox="0 7.31 24 9.39">   <desc>     Cadillac Streamline Icon: https://streamlinehq.com   </desc>   <title>Cadillac</title>   <path d="M2.787 9.414h2.104l-0.398 -0.719h7.139v0.717h0.238v-0.965H2.135l0.652 0.967zm0.202 0.948h8.879v-0.719H2.874l0.115 0.719zm2.255 1.204h-2.06l-0.16 -0.981h8.846v0.981h-0.239v-0.751H5.169l0.075 0.751zm3.299 0.692h3.326v0.515H8.543v-0.515zm3.589 -3.811h3.357v1.444h-3.357V8.447zm-8.469 5.569c0.054 0.086 0.155 0.186 0.49 0.281 0.146 0.037 0.305 0.074 0.515 0.122l0.08 0.019H8.31v-0.51H3.616c0.013 0.03 0.028 0.06 0.046 0.088h0.001zm4.647 -0.779H3.459l-0.238 -1.44H8.31v1.44zm0.232 2.021c1.243 0.253 2.457 0.488 3.329 0.63V13.47H8.542v1.788zm12.276 -3.692h-5.1v-1.445h5.333l-0.233 1.445zm-5.1 -2.66v0.513l5.485 -0.002 0.344 -0.511h-5.829zM0 7.306l1.616 2.369c0.177 1.006 0.64 3.599 0.693 3.85l0.006 0.032c0.148 0.706 0.239 1.139 1.59 1.473 1.825 0.45 5.997 1.323 8.094 1.664 2.097 -0.341 6.271 -1.215 8.097 -1.664 1.35 -0.334 1.44 -0.767 1.589 -1.473l0.006 -0.032c0.053 -0.253 0.516 -2.844 0.693 -3.85L24 7.306H0zm21.454 2.335 -0.277 1.717c-0.16 0.994 -0.267 1.657 -0.32 1.951l-0.007 0.035 -0.012 0.07c-0.127 0.692 -0.183 1.002 -0.91 1.205 -1.516 0.373 -5.908 1.31 -7.927 1.626 -2.018 -0.316 -6.41 -1.254 -7.925 -1.626 -0.727 -0.203 -0.783 -0.513 -0.91 -1.206l-0.019 -0.104c-0.053 -0.288 -0.156 -0.93 -0.31 -1.89v-0.001L2.55 9.64 1.276 7.75h21.45l-1.272 1.89v0.001zm-9.084 3.132h-0.238v-0.976h8.65l-0.16 0.978h-2.004c0.031 -0.171 0.09 -0.659 0.099 -0.73H12.37v0.728zm-0.238 0.942h8.322l0.134 -0.716h-8.456v0.716zm0 -3.129h3.358v0.516h-3.358v-0.516zm0 3.342v1.959c2.115 -0.36 6.223 -1.205 7.718 -1.592 0.338 -0.087 0.438 -0.193 0.492 -0.279a0.448 0.448 0 0 0 0.045 -0.088h-8.255zm2.296 1.282 -0.415 0.082c-0.21 0.042 -0.665 0.125 -1.065 0.199l-0.577 0.106v-1.422h5.88c-0.27 0.33 -0.812 0.437 -3.823 1.035z" fill="white" stroke-width="1"></path> </svg>