<svg xmlns="http://www.w3.org/2000/svg" fill="white" viewBox="35.72 8.5 122.44 122.44"><path d="M140.229 26.435c-11.564-11.563-26.938-17.93-43.289-17.93-33.757 0-61.22 27.462-61.22 61.219 0 16.352 6.368 31.726 17.931 43.289 11.563 11.562 26.937 17.932 43.289 17.932 16.351 0 31.724-6.369 43.289-17.932 11.562-11.562 17.93-26.937 17.93-43.289s-6.368-31.726-17.93-43.289zM96.94 127.439c-15.417 0-29.91-6.004-40.811-16.906-10.901-10.9-16.905-25.394-16.905-40.81 0-5.382.748-10.646 2.164-15.689.444 21.372 16.209 29.275 35.133 38.395 27.163 13.051 37.336 13.036 40.84 31.264a57.414 57.414 0 0 1-20.421 3.746zm41.333-17.494c-5.471-27.609-37.131-28.841-60.134-42.115C69.582 62.784 60.1 56.687 60.1 42.6c0-16.4 14.345-27.16 30.528-26.702 24.773.701 34.836 17.408 34.424 35.181-.014.644 6.244.911 6.244-.14 0-1.155.771-14.89.369-27.315a58.437 58.437 0 0 1 6.084 5.288c10.9 10.901 16.904 25.395 16.904 40.811.001 15.63-6.253 29.82-16.38 40.222z"></path></svg>