<svg xmlns="http://www.w3.org/2000/svg" viewBox="38.21 99.3 200.7 79.4"> <path d="m100.3 139c0-21.4 17.3-38.7 38.7-38.7s38.7 17.3 38.7 38.7-17.3 38.7-38.7 38.7-38.7-17.4-38.7-38.7" fill="none" stroke="white" stroke-width="2"></path> <path clip-rule="evenodd" d="m107 116.2c.6.3 1.2.6 1.9 1 2.9 2 4.8 3.7 9.2 7.4 1.3 1.3 2.8 3.4 3.9 4.7 2.4 3 4.1 5.1 4.4 7.6.7 5 1.4 7.8 3.3 12.9.2.5 1 1.2 1.5 1.8 1.2 1.5 1.7 3.9 3.9 5.2 1.2.7 1.4.8 1.8 1.1.6.5-.4 2.3-3.5 1.9 1.6.8 1.4 2.6-.9 2.7-4.5.2-7.3-2.4-7.9-3.1-.3-.3-1.2.9-2.8 1.5-1.6.8-3.8 0-5.5.3-1.6.3-3.7 1.3-5.4 1.4-3 .1-3.4-2-3.4-3.8v-.8c-.3 1.1-1.4 3-1.4 3-.4.9-1 2-2.1 2.4l-3.2.4c-2.5 1.1-5 1.9-7.6 2.8-1.5.3-3.2 0-4.3-.9-.9-.7-1.4-1.6-1.9-2.5-.5-.2-1.2 0-1.8-.2-.5-.1-.8-.5-1.1-.8l-2.2-3.7c-.2-.5-.2-1.2 0-1.7.4-.8 1.3-1.2 2.2-1.2 1.6-.1 3.4-.6 5 0 .7-.8 1.8-.7 2.8-.9-.4-.6-1-.9-1.5-1.4-2.9.7-6.1.2-8.9-.3-2.6-.6-4.8.9-7.4.5l-.8 1.7c-1.2 1.3-1.3 3.5-3.1 4.4-1.3.3-2.3 1.2-3.4 1.8-2 1.1-4.7.6-6.9.2-.9-.1-1.5 0-2.3.3-.7.5-1.5 1.3-2.3 1.9-1.3.5-2.4 1.6-3.8 1.7-.8 0-1.6-.5-2.4-.3-1 1.1-1.5 2.9-3.1 3.4s-3.6.1-5.2-.3c-.5.2-.8.6-1.4.5-1.1-.3-2.2-.6-3.2-1.2-.4-.4-.5-.9-.6-1.3 0-.7.6-1.3.9-1.9.1-.7.1-1.7.4-2.4.5-1.1 1.6-1.8 2.7-2.3.1-.8.6-1.5 1.3-1.9 1.3-.7 2.7-2.3 4.4-1.4l1.8 1.5c1.6-.7 1.2-2.3 2-3.6.4-.9.9-1.9 1.9-1.9.7-.1 1.5.1 2.2 0 1-.3 2.1-.7 2.8-1.5l-.1-.6c-1-1.9-1.3-4.2-1.4-6.5-1.8.2-3.7.5-5.6.1-2.8-.4-5.5-2.6-6.6-5.4-1.2-2.7-.7-6.5 1.2-8.8 1.5-1.8 3.2-3.4 5-4.8-.6-.2-1.3-.1-1.9-.3-2.6-.4-5.2-2.7-5.8-5.3-.4-1.7 0-3.3.8-4.7.3-.3.6-.6 1.1-.4 1.3.5 1.7 1.2 2.9 1.8l.7.4c3.3 1.1 7.7 1.1 9 5.2.8 3.2-1.2 5.6-3.5 7.4-1.8 1.3-3.6 2.9-4.5 4.8-.4 1.4-.2 2.8 1 3.8 1.2 1.2 3.3 1.2 4.8.6 2.8-1.2 5.4-3 7.9-4.9 2.4-1.8 5.3-2.5 8.4-2.6 1.4-.3 2.6-.9 3.7-1.8 1.9-1.8 3.9-3.3 6.3-3.9 1.1-.2 2.2-.3 3.3-.4.9-.4 1.5-1.5 2.2-2 3.3-2.9 7.7-2.8 11.2-5.1 2-1.5 4.2-2.5 6.8-2.4 1.2.1 2.3.3 3.3.7zm3.3 34c-2.2.1-3.6.6-5.1.8.1 1.4.9 2.6 2 4.1.6-2.3 2.5-3.2 3.1-4.9m56.3.5c1 1.5 1.6 3 2.5 4.6.9-1.7 1.7-3.3 2.5-4.3-.1-.1-2.7.2-5-.3m2.1 7.4c-.1.3-.3.4-.7.4.3 1.4-.7 4-3.2 4.1-1.7.1-4.5-1.6-6.1-1.7-1.7-.1-4.8 1.2-6.6-1.5-2.4 2.9-5.2 3.7-7.6 3.6-1.4 0-2.9-.8-.8-2.6-4.6 1.5-4.6-1.6-3.8-2.2.5-.4 1.1-.7 2.8-2.4 6.4-6.7 4-18.3 11-26 2.7-3 4.9-4.7 10.4-8.6 1.9-1.3 3.8-3.2 5.6-4.5l.1.2v-.1c1.1-.8 2.1-1.6 3.3-1.9 2.5-.3 4.8.5 6.7 1.8 1 .7 1.8 1.5 2.6 2.5.6.6 1.5.6 2.3.9 2.3.4 4.3 1.3 6.2 2.5 1.3.8 2.4 2.2 4 2.4 1.9.3 3.6.9 5.3 1.9 2 1.3 3.8 2.9 6.2 3.3 4.8.5 8.8 3.2 12.6 5.9 2.2 1.3 4.8 2.8 7.5 1.9.8-.3 1.4-1 1.6-1.7.2-1.8-.9-3.2-2-4.5-2.3-2.7-6.3-5-5.8-8.9.7-2.9 3.9-4.6 6.4-5.4 1.4-.5 3.1-.3 4.3-1.5.6-.4.9-1.8 1.9-1.3.8.5.9 1.5 1 2.4.4 2.8-.2 5.6-2.8 7.2-1.2.8-2.5 1.1-3.9 1.4 2.1 1.7 4.2 3.8 5.4 6.2.7 1.4 1.1 2.6 1.2 4.2-.1 3-1.9 5.6-4.5 7.1-1.5.8-3.2 1.1-5 1.1-.7 0-1.3-.2-1.9-.2.3 1.4.3 3.3 0 4.9-.1.8-.6 1.7-.6 2.7.4.5 1 .5 1.5.5 1.3 0 2.9-.1 3.6 1.3.6 1.3.9 2.8 1.4 4.1.2.2.3.7.6.6.9-.8 1.8-1.9 3.1-1.6 1.2.8 2.4 1.7 3.6 2.6.3.3.4.7.5 1.2 1 .4 2.3 1.1 2.6 2.3.2.8.1 1.6.3 2.3.3.8 1.1 1.8.5 2.8l-.4.3-3.8 1.2c-.3 0-.6-.2-.9-.5-2-.1-4.4.5-6-.9-.7-.6-1.2-1.3-1.7-2.1-1.2.6-2.9 1-4.1.2-2.5-1.9-5-3.8-8.4-3.7-1.5.3-3.3.7-4.8.1-1.4-1-3-1.5-4.1-3-1.6-1.7-1.6-3.7-2.2-5.8-2.2.5-4.6.2-6.8.1-1.8-.1-3.5.2-5.2.6-2.1.4-4.4.6-6.6.5l-1.1.8c.5.1 1 .1 1.4.5l.4.4c1.8.2 3.9-.1 5.6.3.4.1.8.5 1 .9.2.5.2 1.1-.1 1.5-.9 1.2-1.4 2.6-2.6 3.6-.3.4-1.2-.1-1.3.6-.4 1.8-2.1 3.3-3.8 3.7-.7.1-1.5 0-2.1-.2-2.1-.7-4.2-1.3-6.3-1.9-.7-.2-1.3-.9-1.9-1.3-.9 0-2.2.3-2.8-.5-.3-.2-.6-.9-.7-1.2-.7-.9-1.2-2.5-1.5-3.9" fill="none" fill-rule="evenodd"></path><g fill="white"> <path clip-rule="evenodd" d="m107 128.8c.6 1.5.6 3.5.2 5.1-.1.1-.2.1-.3 0-.3-1.4-.6-2.8-1.1-4.2-.3-.8-1.3-1.5-.9-2.4.2-.2.6-.2.9-.1.5.5.8 1 1.2 1.6m16 14c1.1 1.3 1.9 2.7 1.5 4.4-.2.3-.1.9-.6 1-.2.1-.4-.1-.4-.3-.1-.9-.1-1.9-.6-2.6-.6-.6-1.3-1.8-2.3-1.8-.7.2-1.2 1-1.6 1.5 0 .1-.1.1-.2 0-.4-1 .4-1.8.7-2.6.6-.6.5-2.3 1.8-1.8.9.6 1.1 1.6 1.7 2.2m-2.1 11.9c.1.6.1 1.5-.5 1.9-.6.2-1.4.3-2.1.2-.2-.1-.4-.2-.3-.4.3-.9 1.2-1.9 2.2-2.1.2 0 .6 0 .7.4m-73-36.5c2.4.6 5 .6 6.8 2.5 1 1.2 1.1 3.3.3 4.5-1.4 2.4-4.2 3.6-5.9 5.7-1.7 1.4-2.3 3.6-1.8 5.8.6 1.9 2.5 3.2 4.4 3.3 3 .1 5.2-1.4 7.6-2.8 2.4-1.7 4.6-3.9 7.3-4.6 1.8-.6 3.8-.3 5.6-1 1.9-.4 3.4-2 4.9-3.4 1.7-1.4 3.7-2.2 5.9-2.1 2 .3 3.1-1.5 4.5-2.7 2.3-2.1 5.3-2.3 8-3.5 1.9-.6 3.4-2 5.2-2.9 1.7-.7 4-.9 5.7-.2 1.1.5 2.3 1 3.3 1.8l8.1 6.8c.1.3.4.5.6.6 2.3 2.8 4.7 5.5 6.6 8.6.6 1.1.9 2.2 1.2 3.4.4 4.6 1.6 8.6 3.1 12.6.4.6 1.2 1.1 1.6 1.7 1.3 1.8 2.1 4.1 4.2 5.3l1.2.6c.1.1.1.3 0 .4l-.2.2c-2.5.4-4.4-1.1-5.7-2.9-.8-1.6-1.9-3.3-3.7-4-.1 0-.2.1-.2.1.2.6.8 1 1 1.5.7 1.1 1.3 2.3 1.6 3.5.4 1.3 1.8 2.2 2.9 2.9l1.6.8c.2.1.3.4.1.6l-.2.1c-2.7.1-5.1-.8-7-2.8-.4-.5-1-.9-1.7-.9-1.2 1.1-2.4 2.1-4 2.2-1.7-.3-3.5-.3-5 .3-1.4.5-2.8 1.1-4.3 1.1-.7 0-1.5-.3-1.8-1 0-.9-.6-1.9-.1-2.8l1-1.5c0-.2-.1-.4-.3-.4-.4-.1-1.1.6-1.3-.1.1-1.5 1.6-2.5 2.6-3.5.2-1.2.7-2.3 1.6-3.3 0-.1-.1-.3-.3-.3-1.3.2-2.6.5-4 .5-1.1.6-2.5 1-3.8.6-.3-.2-.2-.5-.1-.7 1.4-1.9 1.9-4.3 1.5-6.6-.1-.1-.1-.3-.3-.3s-.2.2-.3.3c-.3 2.2-1 3.9-2.2 5.8-.9.9-2.3.9-3.5 1.2-.3.1-.6.4-.6.7 0 .8.5 1.3.8 2l2.6 4.8c.1 1.3-.5 2.6-.8 3.8.1.2.3.1.5 0 .9-.8 1.5-1.9 1.9-3.1.1-.5-.1-1.1-.3-1.5l-2.7-5.4c.2-.3.6-.3.9-.4.6 0 1.2.3 1.8.5.6 1.6 1.3 3.3 2.4 4.7.2.9.5 2.1-.1 2.8-.6 1.2-1.2 2.2-2 3.3-.7.7-1.7.6-2.7.7h-.3c-2.4 1.3-4.9 2.1-7.5 2.9-1.1.5-2.4.1-3.3-.6s-1.3-1.7-1.9-2.6c-.7-.9-1.8-.1-2.6-.6-.7-1.1-1.4-2.2-2-3.4 0-.3 0-.6.3-.8.9-.3 1.9-.3 2.9-.4.9-.1 1.9.1 2.5.7 1.2 1.4 1.7 3.3 3.5 4.2 1.4.1 2.6-.3 3.8-.9.7-.4 1.5-1 1.5-1.9-.1-1.8-1.3-3.2-2.8-4.2-1.5-.8-3.1-1.9-4.2-3.3-.6-.8-.7-1.7-1-2.5-.1-.2-.5-.2-.6-.1-.6.5-.1 1.4-.1 2 .1.4.3.9.1 1.2-.9.7-2.1.3-3.2.4-2.2-.1-4.3-1-6.6-.8-2.2.1-5.2 1.6-6.8-.6-.8-2.1-.6-4.6-.2-6.7 0-.2-.2-.4-.4-.4-.2-.1-.4 0-.5.2-.6 2.1-.7 4.4-1.2 6.6-.8 1.9-2.2 3.9-4.1 4.9-1.7.9-3.7 1.2-5.8 1.4-3.8.1-7.3.8-9.7 4.1-.2.3-.5.6-.4 1 .1.1.4.2.5.1 2.6-2.9 5.9-4.1 9.7-3.9 3.6 0 7.2-.6 9.5-3.7.6-.7 1-1.4 1.5-2.2.4 0 .7.5 1 .7.1 1.1-.8 1.8-1.2 2.7-.5 1-1 2.2-2 2.8-1.2.3-2.2 1.1-3.3 1.7-1.1.5-2.5.7-3.8.4-1.6-.3-3.8-.7-5.4 0-.8.5-1.5 1.4-2.3 1.9-1.1.5-2.1 1.4-3.4 1.3-.9-.2-2-.8-2.8 0-1 .9-1.2 2.5-2.5 3.1-1.5.8-3.1 0-4.6-.1.2-1.5.4-2.9 1.4-4 .6-.1 1.1-.2 1.6-.6.6-.5 1-1.2 1.4-1.9 1.3-.8 2.8-1.4 3.6-2.8.6-1.3.6-2.5 1.6-3.7l.5-.2 2.7-.2c1.1-.5 2.1-1 3.1-1.8.3-.3.4-.8.3-1.3-.5-1.3-.9-2.2-1.2-3.6s-.1-2.8-.3-4.4c-.1-.1-.2-.4-.4-.4-1.8.4-3.5.9-5.5.6-2.7-.3-5.5-2.1-6.5-4.8-.9-2.3-.7-5.6 1-7.5 1.6-2 3.6-3.5 5.6-5.2.3-.2.3-.6.4-.9 0-.4-.4-.7-.7-.9-1.2-.3-2.6.1-3.8-.4-2.1-.7-3.7-2.7-4-4.9-.1-1 .1-1.8.6-2.6 1.6 1.4 2.8 2.6 4.3 3m-6 44.7v.3c-.5 1.2-.8 2.6-1.2 4-.9-.1-1.7-.4-2.4-.7-.2-.2 0-.4 0-.6.9-.8.6-1.8.8-2.9.1-.6.7-1.1 1.3-1.4.7.1 1.1.8 1.5 1.3m4.4-4.2c-.5 1-1.2 2.2-2.3 2.8-.4.1-.9.1-1.3-.1-.2-.2-.6-.4-.6-.8.1-.4-.1-.9.3-1.1.8-.5 1.6-1 2.4-1.7.2-.1.6-.2.7 0 .4.3.7.5.8.9m50.1-.4c.1.4.7.9.3 1.3-.8.6-1.7 1-2.8.9-.8-.6-.7-1.7-1.4-2.5-.2-.6-1.1-.6-.9-1.2l.3-.2c1.1 0 2.2 0 3.3-.2 1.1-.1.8 1.2 1.2 1.9m63.2-16.3c.6.8 1.1 1.6 1.5 2.6.1.2 0 .4-.1.6s-.3.4-.6.2c-.7-.2-.6-1.3-1.5-1.2-.6 0-1 .5-1.5.8-.9.8-2.1 1.6-2.3 2.8-.2.4-.1 1.1-.5 1.3-.2.1-.5-.1-.5-.3-.1-1.6.4-3.1 1.5-4.2 1.1-.9 1.9-2.2 2.8-3.3.6-.1 1 .3 1.2.7m.4 13.3c.2.4.6.9.3 1.4-.4.3-1.1.1-1.6.1-.6-.3-.8-1.1-.8-1.8 0-.2 0-.3.2-.5.7 0 1.4.2 1.9.8m15-30.6c.3.4 0 .8-.2 1.1-1.4 1.3-3.1 2.7-4.1 4.3-.4.5-.7 1.1-.9 1.7 0 .1-.1.1-.2.1-.3-.8.1-1.7.3-2.5.7-1.9 2.3-3.7 4-5 .2-.1.9-.2 1.1.3m5.7-6.4c1.1.7 1.5 2.2 2.8 2.5 2.2.5 4.4 1 6.4 2 1.4.7 2.7 1.7 4 2.8 1.2.6 2.7.6 4 1 1.9.5 3.4 1.9 5.1 3 2.2 1.7 5.3 1.5 7.8 2.6 4 1.3 7.2 4.4 10.9 6.2 1.9 1 4.8 1.4 6.7.3 1.3-.9 2.1-2.1 1.8-3.8-.7-4.1-5.2-6.2-7.3-9.6-.4-.8-.7-1.9-.5-2.8.8-2 2.9-3.1 4.7-3.8 1.4-.7 3.2-.5 4.5-1.3.5-.3.9-.7 1.2-1 .3 0 .3.3.4.5.4 2.4 0 4.9-2.1 6.3-.8.6-1.8.8-2.7 1-.8.3-2.4-.3-2.3 1.1.2.7.8 1.1 1.3 1.6 2.8 2.3 5.4 5.3 5.7 8.9.1 2.8-1.8 5.2-4.2 6.4-1.8.7-4 1-5.9.5-.5-.1-1.3-.6-1.7.1-.1.8.4 1.4.4 2.1.2 1.3.2 3-.2 4.3-.2 1-1.2 2.2-.3 3.2.9 1.4 2.7 1 4.2 1.2.8.1 1.1 1 1.3 1.6.3.8.3 1.7.6 2.3 0 1.5 1.7 2.1 2.5 3.1 1 1.1 1.9 3 3.6 2.9.6 1.2.9 2.3 1.1 3.7l-.2.2c-1.4 0-3.3.4-4.3-.6-1.2-.8-1.6-3-3.4-2.4-.8.6-1.9.8-2.8.4-.9-.3-1.5-1.1-2.3-1.6-2.4-1.8-5.6-2.7-8.7-2-1.8.5-3.2-.8-4.6-1.6-1.9-.8-2.4-2.8-2.8-4.5l-.3-2.1c0-.2.2-.4.4-.5h.3c1.1 2.5 3.2 5.3 5.9 6.2 2.5 1 4.8-.3 7.5.2 2.5.3 4.5 1.9 6.4 3.4.2 0 .3-.1.4-.3v-.2c-2.3-2.9-5.5-4.4-9.2-4.1-3.1.6-6.1-.4-7.9-3-1-1.5-1.7-3.1-2-4.8-.3-2-.7-4.2-1.4-6-.2-.1-.4-.3-.6-.2l-.2.3c.3 1.9.9 4.2.2 6.2-.5 1.6-2.1 2.2-3.6 2.3s-2.9-.2-4.5-.2c-3.6-.1-6.8 1.3-10.5 1 .3-.9.9-1.8.6-2.8-.1-.2-.4-.2-.6-.2-.7.4-.6 1.3-1 1.9-.8 1.3-2.3 2.5-3.8 2.8-1.1.8-2.1 1.9-3 2.9-.3.3-.3.9-.2 1.3.7 1.8 2.8 2 4.4 2.5.8.1 1.5-.2 1.9-.9.7-1.1.8-2.9 2.4-3.1h3.5c.3.1.5.3.7.6l-.1.5c-.8.9-1.1 2.2-2.1 2.8-.6.2-1.3 0-1.7.5-.2 1.2-.5 2.5-1.7 3.1-.9.8-2.2.4-3.2.1-1.9-.7-3.8-1.1-5.7-1.7-.8-.2-1.1-1.2-2-1.4-.8-.2-1.7.4-2.4-.3-.4-.9-.6-1.5-.8-2.5-.3-.6-.5-1.3-.6-2-.1-.6 0-1 .2-1.5l2.6-4.7c.2-.3.4-.6.7-.7.6.1 1.3.4 1.9.7l-.1.3-2.7 4.1c-.6 1.3 0 2.8.6 3.9.1.1.2.3.3.2-.1-.8-.2-1.6 0-2.5.2-.8.7-1.5 1.1-2.2l2.1-3.1c.2-.5.2-1.3-.2-1.8-.9-.9-2.2-1.2-3-2.4-1.7-2.3-1.9-5-2.1-7.9 0-.2-.2-.5-.5-.6-.2-.1-.4.2-.5.3-.5 1.9-.2 4.2.3 5.9.3 1.3.9 2.6 1.5 3.8.1.2-.1.5-.3.6-1.4.1-2.8 0-4.1-.2-1.8-.3-3.1-1.7-4.6-2.8-.2-.1-.3.1-.4.2.4 2 2.6 3.2 3.3 5 .4 1.5 1.9 2.6 2.2 4.2 0 .2-.2.5-.4.6-.5.1-1-.2-1.5.1-.1.9.5 1.8.1 2.6-.5.8-1.2 1.7-2.1 1.7-1.8-.6-3.6-1.4-5.4-1.9-1.3-.1-2.6.1-3.8.2-1.2-.2-2-1.3-2.9-1.9-.3-.1-.6-.1-.8.1-2 2-4.2 4.2-7.2 4.1-.2 0-.3-.2-.3-.4v-.2c1.3-1.2 2.9-2.4 3.5-4.1.4-1.4 1.6-2.4 2.1-3.7.1-.2-.1-.3-.3-.4l-.3.2c-1.5 1.5-2.6 3.2-3.7 4.8-1.1 1.1-2.7 1.8-4.4 1.4-.2-.1-.2-.4-.1-.6 6.2-3.8 6.9-10.6 8.6-16.8 1.2-4.1 2.1-8.3 5.3-11.6 4.8-5.3 10.8-8.4 16.1-13 .8-.7 1.6-1.4 2.6-1.4 2.6-.2 4.6.8 6.4 2.3m57.1 44.2c.5.7.3 1.8.5 2.6.1.6.9 1.1.5 1.7l-2.2.7c-.4 0-.2-.5-.4-.7-.2-1.3-.5-2.2-.9-3.4-.1-.7.6-1.2 1.1-1.6.5-.2.9.4 1.4.7m-5.1-4.5c.8.7 1.9 1.2 2.5 2.1.1.4-.2.8-.4 1.1-.3.3-.7.5-1.2.5s-.9-.3-1.2-.7c-.5-.8-1.2-1.5-1.4-2.3.3-.5 1-1.3 1.7-.7m-48.2-.8c-.1 1-.4 1.9-.8 2.8-.3.6-1.2.4-1.8.3-.6-.2-1.6-.3-1.7-1.2-.1-.8.3-1.6.7-2.2.9-.1 2 .1 2.9-.1.4 0 .7.1.7.4" fill-rule="evenodd"></path> </g></svg>